HIERARCHY
ROOT hip
{
  OFFSET 0 0 0
  CHANNELS 6 Xposition Yposition Zposition Zrotation Yrotation Xrotation
  JOINT abdomen
  {
    OFFSET 0 20.6881 -0.73152
    CHANNELS 3 Zrotation Xrotation Yrotation
    JOINT chest
    {
      OFFSET 0 11.7043 -0.48768
      CHANNELS 3 Zrotation Xrotation Yrotation
      JOINT neck
      {
        OFFSET 0 22.1894 -2.19456
        CHANNELS 3 Zrotation Xrotation Yrotation
        JOINT head
        {
          OFFSET -0.24384 7.07133 1.2192
          CHANNELS 3 Zrotation Xrotation Yrotation
          JOINT leftEye
          {
            OFFSET 4.14528 8.04674 8.04672
            CHANNELS 3 Zrotation Xrotation Yrotation
            End Site
            {
              OFFSET 1 0 0
            }
          }
          JOINT rightEye
          {
            OFFSET -3.6576 8.04674 8.04672
            CHANNELS 3 Zrotation Xrotation Yrotation
            End Site
            {
              OFFSET 1 0 0
            }
          }
        }
      }
      JOINT rCollar
      {
        OFFSET -2.68224 19.2634 -4.8768
        CHANNELS 3 Zrotation Xrotation Yrotation
        JOINT rShldr
        {
          OFFSET -8.77824 -1.95073 1.46304
          CHANNELS 3 Zrotation Xrotation Yrotation
          JOINT rForeArm
          {
            OFFSET -28.1742 -1.7115 0.48768
            CHANNELS 3 Zrotation Xrotation Yrotation
            JOINT rHand
            {
              OFFSET -22.5879 0.773209 7.07136
              CHANNELS 3 Zrotation Xrotation Yrotation
              JOINT rThumb1
              {
                OFFSET -1.2192 -0.487915 3.41376
                CHANNELS 3 Zrotation Xrotation Yrotation
                JOINT rThumb2
                {
                  OFFSET -3.37035 -0.52449 3.41376
                  CHANNELS 3 Zrotation Xrotation Yrotation
                  End Site
                  {
                    OFFSET -1.78271 -1.18214 1.43049
                  }
                }
              }
              JOINT rIndex1
              {
                OFFSET -7.75947 0.938293 5.60832
                CHANNELS 3 Zrotation Xrotation Yrotation
                JOINT rIndex2
                {
                  OFFSET -2.54057 -0.884171 1.56538
                  CHANNELS 3 Zrotation Xrotation Yrotation
                  End Site
                  {
                    OFFSET -1.62519 -0.234802 1.16502
                  }
                }
              }
              JOINT rMid1
              {
                OFFSET -8.24714 1.18213 3.41376
                CHANNELS 3 Zrotation Xrotation Yrotation
                JOINT rMid2
                {
                  OFFSET -3.10165 -0.590103 1.0647
                  CHANNELS 3 Zrotation Xrotation Yrotation
                  End Site
                  {
                    OFFSET -2.48547 -0.328903 0.83742
                  }
                }
              }
              JOINT rRing1
              {
                OFFSET -8.82822 0.546677 1.51678
                CHANNELS 3 Zrotation Xrotation Yrotation
                JOINT rRing2
                {
                  OFFSET -2.60934 -0.819778 -0.0198488
                  CHANNELS 3 Zrotation Xrotation Yrotation
                  End Site
                  {
                    OFFSET -2.33842 -0.294052 0.168128
                  }
                }
              }
              JOINT rPinky1
              {
                OFFSET -8.27202 -0.0477905 -0.4584
                CHANNELS 3 Zrotation Xrotation Yrotation
                JOINT rPinky2
                {
                  OFFSET -1.82734 -0.647385 -0.700984
                  CHANNELS 3 Zrotation Xrotation Yrotation
                  End Site
                  {
                    OFFSET -1.69225 -0.51767 -0.607171
                  }
                }
              }
            }
          }
        }
      }
      JOINT lCollar
      {
        OFFSET 2.68224 19.2634 -4.8768
        CHANNELS 3 Zrotation Xrotation Yrotation
        JOINT lShldr
        {
          OFFSET 8.77824 -1.95073 1.46304
          CHANNELS 3 Zrotation Xrotation Yrotation
          JOINT lForeArm
          {
            OFFSET 28.1742 -1.7115 0.48768
            CHANNELS 3 Zrotation Xrotation Yrotation
            JOINT lHand
            {
              OFFSET 22.5879 0.773209 7.07136
              CHANNELS 3 Zrotation Xrotation Yrotation
              JOINT lThumb1
              {
                OFFSET 1.2192 -0.487915 3.41376
                CHANNELS 3 Zrotation Xrotation Yrotation
                JOINT lThumb2
                {
                  OFFSET 3.37035 -0.52449 3.41376
                  CHANNELS 3 Zrotation Xrotation Yrotation
                  End Site
                  {
                    OFFSET 1.78271 -1.18214 1.43049
                  }
                }
              }
              JOINT lIndex1
              {
                OFFSET 7.75947 0.938293 5.60832
                CHANNELS 3 Zrotation Xrotation Yrotation
                JOINT lIndex2
                {
                  OFFSET 2.54057 -0.884171 1.56538
                  CHANNELS 3 Zrotation Xrotation Yrotation
                  End Site
                  {
                    OFFSET 1.62519 -0.234802 1.16502
                  }
                }
              }
              JOINT lMid1
              {
                OFFSET 8.24714 1.18213 3.41376
                CHANNELS 3 Zrotation Xrotation Yrotation
                JOINT lMid2
                {
                  OFFSET 3.10165 -0.590103 1.0647
                  CHANNELS 3 Zrotation Xrotation Yrotation
                  End Site
                  {
                    OFFSET 2.48547 -0.328903 0.83742
                  }
                }
              }
              JOINT lRing1
              {
                OFFSET 8.82822 0.546677 1.51678
                CHANNELS 3 Zrotation Xrotation Yrotation
                JOINT lRing2
                {
                  OFFSET 2.60934 -0.819778 -0.0198488
                  CHANNELS 3 Zrotation Xrotation Yrotation
                  End Site
                  {
                    OFFSET 2.33842 -0.294052 0.168128
                  }
                }
              }
              JOINT lPinky1
              {
                OFFSET 8.27202 -0.0477905 -0.4584
                CHANNELS 3 Zrotation Xrotation Yrotation
                JOINT lPinky2
                {
                  OFFSET 1.82734 -0.647385 -0.700984
                  CHANNELS 3 Zrotation Xrotation Yrotation
                  End Site
                  {
                    OFFSET 1.69225 -0.51767 -0.607171
                  }
                }
              }
            }
          }
        }
      }
    }
  }
  JOINT rButtock
  {
    OFFSET -8.77824 4.35084 1.2192
    CHANNELS 3 Zrotation Xrotation Yrotation
    JOINT rThigh
    {
      OFFSET 0 -1.70687 -2.19456
      CHANNELS 3 Zrotation Xrotation Yrotation
      JOINT rShin
      {
        OFFSET 0 -36.8199 0.73152
        CHANNELS 3 Zrotation Xrotation Yrotation
        JOINT rFoot
        {
          OFFSET 0.73152 -45.1104 -5.12064
          CHANNELS 3 Zrotation Xrotation Yrotation
          End Site
          {
            OFFSET -1.1221 -3.69964 12.103
          }
        }
      }
    }
  }
  JOINT lButtock
  {
    OFFSET 8.77824 4.35084 1.2192
    CHANNELS 3 Zrotation Xrotation Yrotation
    JOINT lThigh
    {
      OFFSET 0 -1.70687 -2.19456
      CHANNELS 3 Zrotation Xrotation Yrotation
      JOINT lShin
      {
        OFFSET 0 -36.8199 0.73152
        CHANNELS 3 Zrotation Xrotation Yrotation
        JOINT lFoot
        {
          OFFSET -0.73152 -45.1104 -5.12064
          CHANNELS 3 Zrotation Xrotation Yrotation
          End Site
          {
            OFFSET 1.1221 -3.69964 12.103
          }
        }
      }
    }
  }
}
MOTION
Frames:	4
Frame Time:	0.03333
0.0887321075424552 37.52899467945099 0.7240631617605686 -1.7316255569458008 1.0533740520477295 2.722679853439331 -1.1581813097000122 9.690937042236328 3.0054588317871094 1.7345640659332275 -7.3356032371521 0.6850013732910156 -3.285672903060913 10.355246543884277 -2.233743906021118 6.059692859649658 -15.200628280639648 -3.644744634628296 0.11713609844446182 -0.15082092583179474 0.044435493648052216 0.0035545225255191326 0.2562350332736969 -0.24581265449523926 -0.16456060111522675 -0.12737727165222168 0.07213753461837769 23.375377655029297 16.549287796020508 11.950994491577148 -20.465274810791016 -12.701539993286133 30.260393142700195 0.4294804036617279 -5.791808128356934 -1.2429293394088745 -0.05115058273077011 0.3621333837509155 -0.2702190577983856 -0.32243841886520386 -0.0757141262292862 0.1626294106245041 -0.2148745059967041 0.2883389890193939 -0.013618993572890759 5.726056098937988 4.594789028167725 0.37037017941474915 0.06540036201477051 -0.11274263262748718 0.0730397179722786 2.8692851066589355 0.4529494643211365 0.24038062989711761 -0.07414653897285461 -0.3195965588092804 0.07580482214689255 7.702244281768799 0.6090614795684814 0.30342578887939453 -0.26156872510910034 -0.033610813319683075 -0.13202641904354095 1.7154103517532349 -0.743610680103302 -0.22998860478401184 -0.15679726004600525 0.30115723609924316 0.35607123374938965 -27.323699951171875 16.158857345581055 -16.555574417114258 18.771623611450195 -11.723133087158203 -29.463754653930664 -0.15273132920265198 -6.562803745269775 1.545775055885315 -0.09768883883953094 0.0883302316069603 -0.04100222513079643 -0.07030849158763885 -0.020477736368775368 0.06204947829246521 -0.06475712358951569 0.04963486269116402 -0.026107780635356903 -5.9917707443237305 3.845902681350708 -0.43188971281051636 0.3545632064342499 -0.03833221271634102 0.20349416136741638 -2.5442912578582764 0.7047010064125061 -0.08482357114553452 0.008206303231418133 0.07659603655338287 0.2570910155773163 -6.80364465713501 0.5901287794113159 -0.040906768292188644 0.29483532905578613 0.10671143978834152 -0.06939132511615753 -2.2517549991607666 -0.33241763710975647 -0.21651290357112885 -0.1353101283311844 0.1909329891204834 -0.031715866178274155 -10.923093795776367 -20.25252342224121 -9.882065773010254 -0.4475345313549042 30.774065017700195 0.8150538206100464 -2.8408596515655518 -6.605682849884033 -6.865543842315674 -0.3277464807033539 0.13075684010982513 -0.16816619038581848 13.225607872009277 -18.99655532836914 9.965858459472656 -0.0851057916879654 32.0250358581543 -1.4141148328781128 3.335024356842041 -7.714437007904053 7.541104793548584
-0.19463009666651487 65.85714817047119 0.5771410651504993 -3.881950616836548 1.0028241872787476 5.390521049499512 -2.6144261360168457 14.650474548339844 3.8690595626831055 3.093705654144287 -10.640735626220703 1.3866674900054932 -5.764955520629883 16.505699157714844 -4.210163116455078 9.331646919250488 -24.957061767578125 -5.749822616577148 0.026786228641867638 0.09820278733968735 0.20658722519874573 0.16800034046173096 -0.18535871803760529 0.11777371913194656 -0.2023993581533432 0.038496389985084534 0.07247073948383331 45.31605529785156 34.76872253417969 15.215570449829102 -28.914411544799805 -27.09687042236328 56.296749114990234 -0.11433582752943039 -8.908488273620605 -1.4507725238800049 0.2154492735862732 -0.363020122051239 0.11206451803445816 0.15687750279903412 0.126005619764328 -0.08417392522096634 0.2281961739063263 -0.30542081594467163 -0.1161423847079277 8.559093475341797 5.832968711853027 0.625193178653717 -0.07020272314548492 -0.015014552511274815 0.11701930314302444 3.0767276287078857 1.3924946784973145 0.20433466136455536 -0.17220711708068848 0.19097214937210083 0.2919977903366089 11.39474868774414 0.9591720700263977 -0.04829782247543335 0.14010734856128693 0.013931965455412865 -0.05680277943611145 2.5380406379699707 -0.701049268245697 -0.23405814170837402 0.07888779789209366 0.054422777146101 -0.23553285002708435 -51.146568298339844 34.87575149536133 -25.627357482910156 27.873567581176758 -24.51186752319336 -53.55427551269531 0.20195427536964417 -8.400432586669922 1.58124577999115 0.08676691353321075 -0.12687404453754425 0.05841555818915367 0.06712476164102554 -0.12023130804300308 -0.1358272284269333 0.016796063631772995 0.02740274928510189 0.1904146373271942 -8.47706413269043 5.865442276000977 -0.2917885184288025 -0.4131719172000885 -0.15453313291072845 -0.18233029544353485 -3.357173204421997 1.1251342296600342 -0.11196543276309967 0.22769927978515625 -0.014250297099351883 -0.4130815267562866 -11.487558364868164 0.7750881910324097 -0.008083481341600418 -0.14994750916957855 0.2599758207798004 0.12132488191127777 -2.3552803993225098 -0.7625163793563843 0.22533483803272247 0.0631721094250679 -0.08050663769245148 0.17406491935253143 -22.153472900390625 -34.8719367980957 -18.245479583740234 -0.5389835834503174 58.89472198486328 2.1381044387817383 -4.107656478881836 -10.868149757385254 -10.969812393188477 -0.1492859125137329 0.2017042189836502 0.11804252117872238 27.292816162109375 -35.4339485168457 20.138084411621094 1.893390417098999 61.31702423095703 -3.118356943130493 4.515783786773682 -10.875927925109863 13.889880180358887
0.004654633812606335 69.68313455581665 0.34761810675263405 -5.306300163269043 -8.347814559936523 7.406144618988037 -0.4523642063140869 16.840646743774414 5.509237289428711 1.5813298225402832 -10.279658317565918 1.6115217208862305 -4.1524481773376465 15.165974617004395 -0.8493749499320984 7.854462623596191 -26.819427490234375 -0.011953490786254406 -0.09708087891340256 0.20951274037361145 -0.19860604405403137 -0.1557837724685669 -0.13346423208713531 0.15483808517456055 0.32023313641548157 0.0177156925201416 0.00013509464042726904 43.94065856933594 48.496097564697266 24.244531631469727 -28.63077163696289 -35.09796142578125 76.32342529296875 -0.3816496729850769 -17.938100814819336 -2.225013256072998 0.10757012665271759 0.1487511843442917 0.06361531466245651 -0.14617107808589935 -0.22997039556503296 0.1838308721780777 -0.01799839176237583 -0.26222315430641174 0.6566200256347656 8.079760551452637 5.495790958404541 0.4391409456729889 -0.4097495377063751 0.05642304942011833 -0.23770572245121002 2.462885856628418 1.1187993288040161 0.0526643805205822 0.20741134881973267 0.11630567163228989 -0.08373092859983444 10.875353813171387 0.49166691303253174 0.10061904042959213 -0.046784088015556335 -0.09487228095531464 0.11338067799806595 2.2742092609405518 -0.7266897559165955 0.11605372279882431 0.0895640030503273 0.07092311233282089 -0.21508561074733734 -46.93913650512695 38.095462799072266 -44.72261428833008 27.92924690246582 -29.540586471557617 -66.71058654785156 -0.007582998834550381 -4.372313976287842 0.17308060824871063 0.08125056326389313 0.050851304084062576 0.005270682275295258 0.07881874591112137 0.05017231032252312 -0.20057594776153564 -0.17876888811588287 -0.012174712494015694 -0.19085298478603363 -7.970020294189453 5.995804786682129 -0.5431662797927856 -0.024042140692472458 -0.2600877583026886 -0.11009199172258377 -3.1306416988372803 1.2198978662490845 -0.0887298583984375 -0.24466872215270996 0.2548937201499939 0.034905318170785904 -10.897151947021484 0.7200333476066589 0.08560791611671448 -0.4092155396938324 -0.0873120054602623 0.23045526444911957 -2.0049655437469482 -1.0612831115722656 0.3609781265258789 0.1603444218635559 -0.06581130623817444 -0.06123378127813339 -23.939617156982422 -41.215606689453125 -20.13608741760254 -2.9676406383514404 73.99555969238281 4.510443210601807 -5.947417736053467 -14.497663497924805 -16.609254837036133 0.2822754383087158 -0.39836543798446655 -0.00257756351493299 42.75011444091797 -50.21135330200195 35.090274810791016 3.418065309524536 77.92550659179688 -4.171062469482422 2.518491268157959 -7.955966949462891 11.774697303771973
0.2966286847367883 57.023030519485474 0.7030683569610119 -4.851992130279541 -27.229766845703125 8.492053985595703 1.9482694864273071 17.614803314208984 8.615696907043457 -0.5694698691368103 -9.852361679077148 1.9761968851089478 -0.39135491847991943 11.099915504455566 5.667754173278809 2.8889410495758057 -24.312721252441406 11.966726303100586 -0.697501003742218 -0.01200280524790287 0.4499415159225464 0.062393348664045334 0.09557295590639114 0.10368906706571579 -0.39926111698150635 -0.2763603925704956 0.8023681640625 1.9974126815795898 47.5914421081543 62.989585876464844 -27.353628158569336 -32.90974807739258 74.99810791015625 -0.17388173937797546 -21.22243881225586 -2.038804769515991 -0.06488529592752457 0.6804733276367188 -0.4864139258861542 -0.20767250657081604 0.11600570380687714 0.2713785469532013 -0.05788548290729523 0.3697930872440338 0.6827572584152222 6.3235764503479 5.251007080078125 1.0020588636398315 0.24308066070079803 0.052518658339977264 -0.434050053358078 2.13733172416687 0.7222694754600525 0.26094380021095276 0.16005931794643402 -0.31550684571266174 -0.21585124731063843 9.407486915588379 0.8414149284362793 0.2632234990596771 -0.6655827164649963 0.12018964439630508 0.6029461026191711 1.6262351274490356 -0.40222182869911194 0.537459671497345 0.17025409638881683 -0.33959537744522095 -0.5738010406494141 -25.871633529663086 15.122007369995117 -65.3580322265625 26.50962257385254 -27.96401596069336 -67.04317474365234 -0.09910833090543747 8.53393840789795 -1.5902847051620483 0.351586252450943 -0.1727799028158188 0.29239535331726074 -0.0037630025763064623 0.217394158244133 -0.8834090828895569 -0.07065465301275253 0.45475780963897705 0.49973663687705994 -6.69138765335083 5.578924655914307 -0.2871403694152832 0.6535446047782898 -0.3649839758872986 0.3362659513950348 -3.0139195919036865 0.7783626317977905 -0.4216679632663727 -0.35715892910957336 0.09555857628583908 0.5691018104553223 -9.190637588500977 1.1694120168685913 -0.23672497272491455 0.0691598653793335 0.10720233619213104 -0.09913864731788635 -1.8454643487930298 -0.41086646914482117 0.0681728795170784 -0.3189239501953125 0.569527804851532 0.04414016380906105 -14.348007202148438 -36.3062858581543 -15.200064659118652 -1.0517572164535522 71.0286636352539 2.668727397918701 -9.283045768737793 -16.54851531982422 -24.004945755004883 0.502037763595581 -0.35044705867767334 0.10191842168569565 49.17097473144531 -57.415550231933594 43.962406158447266 0.641236424446106 75.31195068359375 -1.3643676042556763 -0.12016519159078598 0.685387134552002 6.346895694732666
